<?xml version="1.0" encoding="UTF-8"?>
<svg width="14px" height="15px" viewBox="0 0 14 15" version="1.1" xmlns="http://www.w3.org/2000/svg" xmlns:xlink="http://www.w3.org/1999/xlink">
    <title>@1,5x</title>
    <g id="Homepage-on-Desktop" stroke="none" stroke-width="1" fill="none" fill-rule="evenodd">
        <g id="Homepage" transform="translate(-667.000000, -3426.000000)" fill="#4A4A4A" fill-rule="nonzero">
            <g id="Container" transform="translate(480.000000, -22.000000)">
                <g id="Button-Facebook-Copy-2" transform="translate(177.666667, 3439.666667)">
                    <path d="M16.6390666,22.9997202 C17.8350696,22.9975013 18.7071091,22.9819688 19.2551847,22.9531227 C19.8489333,22.9218728 20.364557,22.8333315 20.802056,22.6874984 C21.3228882,22.4999988 21.7760122,22.213541 22.1614277,21.8281254 C22.5468433,21.4427098 22.8333011,20.9895859 23.0208007,20.4687537 C23.1666338,20.0312547 23.2551751,19.5156309 23.2864251,18.9218823 C23.317675,18.3281338 23.3333,17.3541776 23.3333,16.0000143 L23.3325603,15.4023827 C23.3298483,14.3568971 23.3196783,13.5873599 23.30205,13.0937712 C23.2603836,12.4896062 23.1666338,11.9687739 23.0208007,11.531275 C22.8333011,11.0104427 22.5468433,10.5573188 22.1614277,10.1719032 C21.7760122,9.78648761 21.3228882,9.50003099 20.802056,9.31253025 C20.364557,9.1666971 19.8489333,9.07815581 19.2551847,9.04690588 C18.6614361,9.01565596 17.6874799,9.00003099 16.3333166,9.00003099 L16.0275667,9.00030836 C14.8315637,9.00252729 13.9595242,9.0180598 13.4114486,9.04690588 C12.8177,9.07815581 12.3020763,9.1666971 11.8645773,9.31253025 C11.343745,9.50003099 10.8906211,9.78648761 10.5052055,10.1719032 C10.11979,10.5573188 9.83333333,11.0104427 9.64583259,11.531275 C9.49999944,11.9687739 9.41145815,12.4843977 9.38020822,13.0781463 C9.3489583,13.6718949 9.33333333,14.645851 9.33333333,16.0000143 L9.3336107,16.3057643 C9.33582963,17.5017672 9.35136214,18.3738067 9.38020822,18.9218823 C9.41145815,19.5156309 9.49999944,20.0312547 9.64583259,20.4687537 C9.83333333,20.9895859 10.11979,21.4427098 10.5052055,21.8281254 C10.8906211,22.213541 11.343745,22.4895823 11.8645773,22.6562484 C12.3020763,22.8229145 12.8177,22.9218728 13.4114486,22.9531227 C14.0051972,22.9843727 14.9791534,22.9999976 16.3333166,22.9999976 L16.6390666,22.9997202 Z M16.8333155,21.7500006 L15.8333178,21.7500006 C14.9999863,21.7500006 14.3541549,21.7395841 13.8958225,21.7187507 C13.1249908,21.6770843 12.5624921,21.593751 12.2083265,21.4687513 C11.5833304,21.2187519 11.1354125,20.7708364 10.8645797,20.1250045 C10.73958,19.7708388 10.6562467,19.2083401 10.6145803,18.4375085 C10.5937468,17.9791761 10.5833304,17.3333446 10.5833304,16.5000131 L10.5833304,16.5000131 L10.5833304,15.5000155 C10.5833304,14.666684 10.5937468,14.0208525 10.6145803,13.5625201 C10.6562467,12.7708555 10.73958,12.2083568 10.8645797,11.8750241 C11.1145791,11.2291922 11.5624945,10.7812767 12.2083265,10.5312773 C12.5624921,10.4062776 13.1249908,10.3229443 13.8958225,10.2812779 C14.3541549,10.2604445 14.9999863,10.250028 15.8333178,10.250028 L17.1370257,10.2505163 C17.8251752,10.2527949 18.36977,10.2630487 18.7708108,10.2812779 C19.5624755,10.3229443 20.1249741,10.4062776 20.4583068,10.5312773 C21.1041388,10.7812767 21.5520542,11.2291922 21.8020536,11.8750241 C21.9270533,12.2083568 22.0103866,12.7708555 22.052053,13.5625201 C22.0728865,14.0000191 22.0833029,14.645851 22.0833029,15.5000155 L22.0828147,16.8037234 C22.080536,17.4918728 22.0702823,18.0364676 22.052053,18.4375085 C22.0103866,19.2083401 21.9270533,19.7708388 21.8020536,20.1250045 C21.5520542,20.750003 21.1041388,21.1979184 20.4583068,21.4687513 C20.1249741,21.593751 19.5624755,21.6770843 18.7708108,21.7187507 C18.3333119,21.7395841 17.6874799,21.7500006 16.8333155,21.7500006 L16.8333155,21.7500006 Z M20.0833077,13.0937712 C20.3124737,13.0937712 20.5051817,13.0104379 20.6614313,12.8437718 C20.817681,12.6771057 20.9062222,12.4791892 20.9270557,12.2500232 C20.9270557,12.0208573 20.8437224,11.8229408 20.6770563,11.6562747 C20.5103902,11.4896086 20.3124737,11.4062753 20.0833077,11.4062753 C19.8541417,11.4062753 19.6562252,11.4896086 19.4895591,11.6562747 C19.322893,11.8229408 19.2395597,12.0208573 19.2395597,12.2500232 C19.2395597,12.4791892 19.322893,12.6771057 19.4895591,12.8437718 C19.6562252,13.0104379 19.8541417,13.0937712 20.0833077,13.0937712 Z M16.3333166,19.5937557 C16.9791486,19.5937557 17.5781052,19.4322976 18.1301874,19.1093819 C18.6822695,18.7864662 19.1197685,18.3489672 19.4426842,17.796885 C19.7656,17.2448028 19.9270581,16.6458463 19.9270581,16.0000143 C19.9270581,15.3541824 19.7656,14.7552258 19.4426842,14.2031436 C19.1197685,13.6510614 18.6822695,13.2135625 18.1301874,12.8906467 C17.5781052,12.567731 16.9791486,12.4062729 16.3333166,12.4062729 C15.6874847,12.4062729 15.0885281,12.567731 14.5364459,12.8906467 C13.9843638,13.2135625 13.5468648,13.6510614 13.2239491,14.2031436 C12.9010333,14.7552258 12.7395752,15.3541824 12.7395752,16.0000143 C12.7395752,16.6458463 12.9010333,17.2448028 13.2239491,17.796885 C13.5468648,18.3489672 13.9843638,18.7864662 14.5364459,19.1093819 C15.0885281,19.4322976 15.6874847,19.5937557 16.3333166,19.5937557 Z M16.3333166,18.3437587 C15.6874847,18.3437587 15.135403,18.1145928 14.6770706,17.6562699 C14.2187382,17.197928 13.9895722,16.6458463 13.9895722,16.0000143 C13.9895722,15.3541824 14.2187382,14.8021007 14.6770706,14.3437683 C15.135403,13.8854359 15.6874847,13.6562699 16.3333166,13.6562699 C16.9791486,13.6562699 17.5312303,13.8854359 17.9895722,14.3437683 C18.4478951,14.8021007 18.6770611,15.3541824 18.6770611,16.0000143 C18.6770611,16.6458463 18.4478951,17.197928 17.9895722,17.6562699 C17.5312303,18.1145928 16.9791486,18.3437587 16.3333166,18.3437587 Z" id=""></path>
                </g>
            </g>
        </g>
    </g>
</svg>