<?xml version="1.0" encoding="UTF-8"?>
<svg width="15px" height="17px" viewBox="0 0 15 17" version="1.1" xmlns="http://www.w3.org/2000/svg" xmlns:xlink="http://www.w3.org/1999/xlink">
    <title>Tiktok@1,5x</title>
    <g id="Homepage-on-Desktop" stroke="none" stroke-width="1" fill="none" fill-rule="evenodd">
        <g id="Homepage" transform="translate(-763.000000, -3425.000000)" fill="#4A4A4A" fill-rule="nonzero">
            <g id="Container" transform="translate(480.000000, -22.000000)">
                <g id="Button-Facebook-Copy-3" transform="translate(273.666667, 3439.666667)">
                    <g id="Tiktok" transform="translate(10.000000, 8.000000)">
                        <path d="M13.0882061,3.87502667 C12.2362576,3.87502667 11.4502024,3.58197775 10.8189675,3.08760914 C10.0950153,2.52088648 9.57486606,1.68957219 9.39118103,0.731411276 C9.34569714,0.49467139 9.32120579,0.250363048 9.3188733,0 L6.88519291,0 L6.88519291,6.9048131 L6.88227726,10.6868997 C6.88227726,11.6980395 6.24812663,12.5553891 5.3690627,12.8569147 C5.11394469,12.9444055 4.83841722,12.9858804 4.5515187,12.9695326 C4.18531497,12.9486438 3.84214476,12.8339067 3.54387528,12.6486319 C2.90914156,12.2544691 2.4787939,11.5394056 2.46713135,10.7214117 C2.44876282,9.44295558 3.44416061,8.40063398 4.67455848,8.40063398 C4.91743093,8.40063398 5.15068168,8.44180617 5.3690627,8.51658202 L5.3690627,6.62932297 L5.3690627,5.95089059 C5.13872762,5.9154704 4.90431055,5.8970035 4.66726941,5.8970035 C3.32053768,5.8970035 2.06098339,6.47825745 1.16063535,7.52542286 C0.480126171,8.316776 0.0719372952,9.32640206 0.00895954286,10.3850715 C-0.0735529143,11.7758427 0.416565333,13.0978929 1.36706232,14.0733097 C1.50672122,14.2165041 1.65337768,14.3494054 1.80674004,14.4720136 C2.62165996,15.1231998 3.61793242,15.4761905 4.66726941,15.4761905 C4.90431055,15.4761905 5.13872762,15.4580263 5.3690627,15.4226061 C6.3492992,15.2718434 7.25372914,14.805932 7.96747657,14.0733097 C8.8444995,13.1732742 9.32907802,11.9783734 9.33432617,10.7065776 L9.32178895,5.05872625 C9.74018255,5.39385547 10.1976456,5.67116206 10.6886386,5.8864077 C11.4522434,6.2209315 12.2619152,6.39046392 13.0952687,6.39016114 L13.0952687,4.5552755 L13.0952687,3.87442118 C13.0957867,3.87502667 13.0887892,3.87502667 13.0882061,3.87502667 L13.0882061,3.87502667 Z" id="Path"></path>
                    </g>
                </g>
            </g>
        </g>
    </g>
</svg>