<?xml version="1.0" encoding="UTF-8"?>
<svg width="17px" height="12px" viewBox="0 0 17 12" version="1.1" xmlns="http://www.w3.org/2000/svg" xmlns:xlink="http://www.w3.org/1999/xlink">
    <title>@1,5x</title>
    <g id="Homepage-on-Desktop" stroke="none" stroke-width="1" fill="none" fill-rule="evenodd">
        <g id="Homepage" transform="translate(-713.000000, -3428.000000)" fill="#4A4A4A" fill-rule="nonzero">
            <g id="Container" transform="translate(480.000000, -22.000000)">
                <g id="Button-Facebook-Copy-3" transform="translate(225.666667, 3439.666667)">
                    <path d="M16.4646256,21.9992276 C18.9052253,21.990989 20.7473739,21.9168417 21.9910714,21.7767857 C22.4136905,21.7291667 22.7827381,21.5565476 23.0982143,21.2589286 C23.4136905,20.9613095 23.6190476,20.5952381 23.7142857,20.1607143 C23.8035714,19.7738095 23.8705357,19.3348214 23.9151786,18.84375 C23.9598214,18.3526786 23.985119,17.9464286 23.9910714,17.625 C23.9970238,17.3035714 24,16.8571429 24,16.2857143 C24,15.7142857 23.9970238,15.2678571 23.9910714,14.9464286 C23.985119,14.625 23.9598214,14.21875 23.9151786,13.7276786 C23.8705357,13.2366071 23.8065476,12.797619 23.7232143,12.4107143 C23.6279762,11.9761905 23.421131,11.610119 23.1026786,11.3125 C22.7842262,11.014881 22.4136905,10.8422619 21.9910714,10.7946429 C20.6696429,10.6458333 18.672619,10.5714286 16,10.5714286 C13.327381,10.5714286 11.3303571,10.6458333 10.0089286,10.7946429 C9.58630952,10.8422619 9.2172619,11.014881 8.90178571,11.3125 C8.58630952,11.610119 8.38095238,11.9761905 8.28571429,12.4107143 C8.19642857,12.797619 8.12946429,13.2366071 8.08482143,13.7276786 C8.04017857,14.21875 8.01488095,14.625 8.00892857,14.9464286 C8.00467687,15.1760204 8.00194363,15.4693878 8.00072886,15.8265306 L8.00072886,16.744898 C8.00194363,17.1020408 8.00467687,17.3954082 8.00892857,17.625 C8.01488095,17.9464286 8.04017857,18.3526786 8.08482143,18.84375 C8.12946429,19.3348214 8.19345238,19.7738095 8.27678571,20.1607143 C8.37202381,20.5952381 8.57886905,20.9613095 8.89732143,21.2589286 C9.21577381,21.5565476 9.58630952,21.7291667 10.0089286,21.7767857 C11.3303571,21.9255952 13.327381,22 16,22 L16.4646256,21.9992276 Z M14.2857143,19.7142857 C14.1964286,19.7142857 14.1041667,19.6904762 14.0089286,19.6428571 C13.8125,19.5357143 13.7142857,19.3690476 13.7142857,19.1428571 L13.7142857,19.1428571 L13.7142857,13.4285714 C13.7142857,13.202381 13.8125,13.0357143 14.0089286,12.9285714 C14.2113095,12.8214286 14.4047619,12.827381 14.5892857,12.9464286 L14.5892857,12.9464286 L19.1607143,15.8035714 C19.3392857,15.9047619 19.4285714,16.0654762 19.4285714,16.2857143 C19.4285714,16.5059524 19.3392857,16.6666667 19.1607143,16.7678571 L19.1607143,16.7678571 L14.5892857,19.625 C14.5059524,19.6845238 14.4047619,19.7142857 14.2857143,19.7142857 Z" id=""></path>
                </g>
            </g>
        </g>
    </g>
</svg>