<?xml version="1.0" encoding="UTF-8"?>
<svg width="16px" height="16px" viewBox="0 0 16 16" version="1.1" xmlns="http://www.w3.org/2000/svg" xmlns:xlink="http://www.w3.org/1999/xlink">
    <title>icon-linkedin@1,5x</title>
    <g id="Homepage-on-Desktop" stroke="none" stroke-width="1" fill="none" fill-rule="evenodd">
        <g id="Homepage" transform="translate(-809.000000, -3426.000000)" fill="#4A4A4A" fill-rule="nonzero">
            <g id="Container" transform="translate(480.000000, -22.000000)">
                <g id="Button-Facebook-Copy-3" transform="translate(320.666667, 3439.666667)">
                    <g id="icon-linkedin" transform="translate(9.000000, 9.000000)">
                        <path d="M13.9285712,0 C14.2187506,0 14.469866,0.106027266 14.6819198,0.318080241 C14.8939735,0.530133994 15,0.781250179 15,1.07142879 L15,13.9285712 C15,14.2187506 14.8939735,14.469866 14.6819198,14.6819198 C14.469866,14.8939735 14.2187506,15 13.9285712,15 L1.07142879,15 C0.781250179,15 0.530133994,14.8939735 0.318080241,14.6819198 C0.106027266,14.469866 0,14.2187506 0,13.9285712 L0,1.07142879 C0,0.781250179 0.106027266,0.530133994 0.318080241,0.318080241 C0.530133994,0.106027266 0.781250179,0 1.07142879,0 L13.9285712,0 Z M2.31026812,12.8571432 L4.5535714,12.8571432 L4.5535714,5.69196425 L2.31026812,5.69196425 L2.31026812,12.8571432 Z M3.41517855,4.72098193 C3.772322,4.72098193 4.07924066,4.59263383 4.33593763,4.33593763 C4.59263383,4.07924066 4.72098193,3.77790201 4.72098193,3.43191937 C4.72098193,3.0859375 4.59263383,2.78459808 4.33593763,2.52790188 C4.07924066,2.27120491 3.772322,2.14285681 3.41517855,2.14285681 C3.05803588,2.14285681 2.75669646,2.27120491 2.51116107,2.52790188 C2.26562489,2.78459808 2.14285681,3.0859375 2.14285681,3.43191937 C2.14285681,3.77790201 2.26562489,4.07924066 2.51116107,4.33593763 C2.75669646,4.59263383 3.05803588,4.72098193 3.41517855,4.72098193 Z M12.8571432,12.8571432 L12.8571432,8.93973227 C12.8571432,7.82366103 12.7008927,7.00892844 12.3883932,6.49553604 C11.9642857,5.84821475 11.2388396,5.52455372 10.212054,5.52455372 C9.69866084,5.52455372 9.24107169,5.64732181 8.8392858,5.8928572 C8.50446396,6.09375015 8.25892857,6.35044634 8.10267884,6.66294657 L8.06919643,6.66294657 L8.06919643,5.69196425 L5.92633962,5.69196425 L5.92633962,12.8571432 L8.13616048,12.8571432 L8.13616048,9.30803575 C8.13616048,8.75000013 8.21428534,8.3258934 8.37053585,8.03571401 C8.59375041,7.6562505 8.96205388,7.46651758 9.47544628,7.46651758 C9.98883945,7.46651758 10.3236605,7.67857134 10.479911,8.10267884 C10.5915175,8.37053585 10.6473215,8.79464335 10.6473215,9.37499981 L10.6473215,12.8571432 L12.8571432,12.8571432 Z" id="-copy"></path>
                    </g>
                </g>
            </g>
        </g>
    </g>
</svg>