<?xml version="1.0" encoding="UTF-8"?>
<svg width="15px" height="12px" viewBox="0 0 15 12" version="1.1" xmlns="http://www.w3.org/2000/svg" xmlns:xlink="http://www.w3.org/1999/xlink">
    <title>@1,5x</title>
    <g id="Homepage-on-Desktop" stroke="none" stroke-width="1" fill="none" fill-rule="evenodd">
        <g id="Homepage" transform="translate(-619.000000, -3429.000000)" fill="#4A4A4A" fill-rule="nonzero">
            <g id="Container" transform="translate(480.000000, -22.000000)">
                <g id="Button-Facebook-Copy" transform="translate(129.666667, 3439.666667)">
                    <path d="M14.1547619,23.3333333 C15.1785714,23.3333333 16.139881,23.171131 17.0386905,22.8467262 C17.9375,22.5223214 18.7053571,22.0877976 19.3422619,21.5431548 C19.9791667,20.9985119 20.5282738,20.3720238 20.9895833,19.6636905 C21.4508929,18.9553571 21.7946429,18.2157738 22.0208333,17.4449405 C22.2470238,16.6741071 22.360119,15.9017857 22.360119,15.1279762 C22.360119,14.9613095 22.3571429,14.8363095 22.3511905,14.7529762 C22.9166667,14.3422619 23.3988095,13.8452381 23.797619,13.2619048 C23.2440476,13.5 22.6904762,13.6488095 22.1369048,13.7083333 C22.7619048,13.3333333 23.1845238,12.8035714 23.4047619,12.1190476 C22.8333333,12.4583333 22.2232143,12.6904762 21.5744048,12.8154762 C21.0029762,12.2083333 20.3005952,11.9047619 19.4672619,11.9047619 C18.6696429,11.9047619 17.9895833,12.1860119 17.4270833,12.7485119 C16.8645833,13.3110119 16.5833333,13.9910714 16.5833333,14.7886905 C16.5833333,15.0029762 16.6071429,15.2232143 16.6547619,15.4494048 C15.4761905,15.389881 14.3705357,15.09375 13.3377976,14.5610119 C12.3050595,14.0282738 11.4285714,13.3184524 10.7083333,12.4315476 C10.4464286,12.8779762 10.3154762,13.3630952 10.3154762,13.8869048 C10.3154762,14.3809524 10.4315476,14.8392857 10.6636905,15.2619048 C10.8958333,15.6845238 11.2083333,16.0267857 11.6011905,16.2886905 C11.1369048,16.2708333 10.702381,16.1488095 10.297619,15.922619 L10.297619,15.922619 L10.297619,15.9583333 C10.297619,16.6547619 10.516369,17.266369 10.953869,17.7931548 C11.391369,18.3199405 11.9434524,18.6517857 12.610119,18.7886905 C12.360119,18.8541667 12.1071429,18.8869048 11.8511905,18.8869048 C11.6845238,18.8869048 11.5029762,18.8720238 11.3065476,18.8422619 C11.4910714,19.4196429 11.8303571,19.8943452 12.3244048,20.266369 C12.8184524,20.6383929 13.3779762,20.8303571 14.0029762,20.8422619 C12.9553571,21.6636905 11.7619048,22.0744048 10.422619,22.0744048 C10.1666667,22.0744048 9.93452381,22.0625 9.72619048,22.0386905 C11.0654762,22.9017857 12.5416667,23.3333333 14.1547619,23.3333333 Z" id=""></path>
                </g>
            </g>
        </g>
    </g>
</svg>