<svg width="24" height="16" viewBox="0 0 24 16" fill="none" xmlns="http://www.w3.org/2000/svg">
<g clip-path="url(#clip0)">
<path d="M16.1924 6.52728C16.3844 6.65528 16.5764 6.52728 16.5124 6.27128L15.4884 4.47928H15.1044L8.70441 15.8073C8.44841 16.0633 8.06441 16.0633 7.93641 15.8073L5.76041 12.1593L5.63241 11.6473V8.44728C5.63241 8.12728 5.50441 7.93528 5.31241 7.80728L0.192406 3.32728C-0.127594 3.13528 0.000405922 2.68728 0.448406 2.68728H9.60041L11.8404 3.96728C11.9684 4.09528 11.9684 4.22328 11.8404 4.28728L10.9444 5.95128C10.9444 6.07928 10.8164 6.14328 10.7524 6.07928L8.96041 5.11928L8.57641 4.99128H6.20841C6.01641 4.99128 5.95241 5.24728 6.08041 5.37528L7.68041 6.65528C7.87241 6.84728 7.93641 7.10328 7.93641 7.29528V11.5193C7.93641 11.7753 8.25641 11.8393 8.38441 11.6473L15.0404 0.127276C15.1684 -0.0647236 15.6804 -0.0647236 15.6804 0.127276L22.5284 11.9673C22.8484 12.3513 22.4004 12.7353 22.0164 12.6073L14.0804 7.93528C13.9524 7.93528 13.8884 7.74328 13.9524 7.67928L14.9124 6.07928C14.9124 5.95128 15.1044 5.95128 15.2324 5.95128L16.1924 6.59128V6.52728Z" fill="#4A4A4A"/>
</g>
<defs>
<clipPath id="clip0">
<rect width="23.04" height="16" fill="white"/>
</clipPath>
</defs>
</svg>
