<?xml version="1.0" encoding="UTF-8"?>
<svg width="8px" height="16px" viewBox="0 0 8 16" version="1.1" xmlns="http://www.w3.org/2000/svg" xmlns:xlink="http://www.w3.org/1999/xlink">
    <title>@1,5x</title>
    <g id="Homepage-on-Desktop" stroke="none" stroke-width="1" fill="none" fill-rule="evenodd">
        <g id="Homepage" transform="translate(-573.000000, -3427.000000)" fill="#4A4A4A" fill-rule="nonzero">
            <g id="Container" transform="translate(480.000000, -22.000000)">
                <g id="Button-Facebook" transform="translate(81.666667, 3439.666667)">
                    <path d="M16.5238095,24.4761905 L16.5238095,17.6994048 L18.7916667,17.6994048 L19.139881,15.0565476 L16.5238095,15.0565476 L16.5238095,13.3690476 C16.5238095,12.9404762 16.6130952,12.6190476 16.7916667,12.4047619 C16.9702381,12.1904762 17.3154762,12.0833333 17.827381,12.0833333 L17.827381,12.0833333 L19.2291667,12.0833333 L19.2291667,9.72619048 C18.7470238,9.6547619 18.0684524,9.61904762 17.1934524,9.61904762 C16.1636905,9.61904762 15.3392857,9.92410714 14.7202381,10.5342262 C14.1011905,11.1443452 13.7916667,12.0029762 13.7916667,13.110119 L13.7916667,13.110119 L13.7916667,15.0565476 L11.514881,15.0565476 L11.514881,17.6994048 L13.7916667,17.6994048 L13.7916667,24.4761905 L16.5238095,24.4761905 Z" id=""></path>
                </g>
            </g>
        </g>
    </g>
</svg>